# xmcd
#
# Track frame offsets: 
#        150
#        19000
#        36818
#        74413
#        107053
#        138938
#
# Disc length: 2125 seconds
#
# Revision: 0
# Processed by: cddbd v1.5.2PL0 Copyright (c) Steve Scherf et al.
# Submitted via: ExactAudioCopyFreeDBPlugin 1.0
#
DISCID=4b084b06
DTITLE=Stole - Kelly Rowland
DYEAR=2003
DGENRE=R&B
TTITLE0=Stole (Album Version)
TTITLE1=Stole (The Gladiator Remix)
TTITLE2=Stole (D. Elliott Dreambrotha Mix)
TTITLE3=Stole (Maurice's Nu Soul Mix)
TTITLE4=Stole (Bear Who? Nu DnB Mix)
TTITLE5=Stole (Video)
EXTD=
EXTT0=
EXTT1=
EXTT2=
EXTT3=
EXTT4=
EXTT5=
PLAYORDER=
